<svg width="64" height="64" viewBox="0 0 64 64" fill="none" xmlns="http://www.w3.org/2000/svg">
    <path d="M31.2136 53.1738C31.1644 52.8238 30.8378 52.5821 30.4911 52.6296C30.1411 52.6792 29.8969 53.003 29.9469 53.353C30.1028 54.4596 31.0686 55.2942 32.1936 55.2942H52.5111C53.7628 55.2942 54.7811 54.2759 54.7811 53.0246V34.6521C54.7811 33.4009 53.7628 32.3825 52.5111 32.3825C31.2277 32.4269 32.0857 32.2741 31.4753 32.5109C31.1453 32.6392 30.9828 33.01 31.1103 33.3392C31.2386 33.6692 31.6136 33.8309 31.9386 33.7042C32.1411 33.6253 30.9467 33.677 52.5111 33.6625C53.0569 33.6625 53.5011 34.1063 53.5011 34.6521V53.0246C53.5011 53.5705 53.0569 54.0142 52.5111 54.0142H32.1936C31.7028 54.0142 31.2819 53.653 31.2136 53.1738Z" fill="#1150CB" stroke="#1150CB" stroke-width="0.5"/>
    <path d="M51.5442 36.9392C51.5442 35.9967 50.7767 35.2296 49.8342 35.2296H34.8783C33.9358 35.2296 33.1692 35.9967 33.1692 36.9392V39.57C33.1692 40.5125 33.9358 41.2792 34.8783 41.2792H49.8342C50.7767 41.2792 51.5442 40.5125 51.5442 39.57V36.9392ZM50.2642 39.57C50.2642 39.8067 50.0717 39.9992 49.8342 39.9992H34.8783C34.6417 39.9992 34.4492 39.8067 34.4492 39.57V36.9392C34.4492 36.7025 34.6417 36.5096 34.8783 36.5096H49.8342C50.0717 36.5096 50.2642 36.7025 50.2642 36.9392V39.57ZM48.1633 42.7309C47.405 42.7309 46.7883 43.3475 46.7883 44.1059V50.8138C46.7883 51.5721 47.405 52.1888 48.1633 52.1888H50.1692C50.9275 52.1888 51.5442 51.5721 51.5442 50.8138V44.1059C51.5442 43.3475 50.9275 42.7309 50.1692 42.7309H48.1633ZM50.2642 44.1059V50.8138C50.2642 50.8663 50.2217 50.9088 50.1692 50.9088H48.1633C48.1108 50.9088 48.0683 50.8663 48.0683 50.8138V44.1059C48.0683 44.0534 48.1108 44.0109 48.1633 44.0109H50.1692C50.2217 44.0109 50.2642 44.0534 50.2642 44.1059ZM44.8758 44.1059C44.8758 43.3475 44.2592 42.7309 43.5017 42.7309H41.3067C40.5483 42.7309 39.9317 43.3475 39.9317 44.1059V45.5675C39.9317 46.3254 40.5483 46.9421 41.3067 46.9421H43.5017C44.2592 46.9421 44.8758 46.3254 44.8758 45.5675V44.1059ZM43.5958 45.5675C43.5958 45.6196 43.5533 45.6621 43.5017 45.6621H41.3067C41.2542 45.6621 41.2117 45.6196 41.2117 45.5675V44.1059C41.2117 44.0534 41.2542 44.0109 41.3067 44.0109H43.5017C43.5533 44.0109 43.5958 44.0534 43.5958 44.1059V45.5675ZM33.1692 45.5675C33.1692 46.3254 33.7858 46.9421 34.5442 46.9421H36.7392C37.4975 46.9421 38.1142 46.3254 38.1142 45.5675V44.1059C38.1142 43.3475 37.4975 42.7309 36.7392 42.7309H34.5442C33.7858 42.7309 33.1692 43.3475 33.1692 44.1059V45.5675ZM34.4492 44.1059C34.4492 44.0534 34.4917 44.0109 34.5442 44.0109H36.7392C36.7917 44.0109 36.8342 44.0534 36.8342 44.1059V45.5675C36.8342 45.6196 36.7917 45.6621 36.7392 45.6621H34.5442C34.4917 45.6621 34.4492 45.6196 34.4492 45.5675V44.1059ZM43.5017 47.9775H41.3067C40.5483 47.9775 39.9317 48.5942 39.9317 49.3521V50.8138C39.9317 51.5721 40.5483 52.1888 41.3067 52.1888H43.5017C44.2592 52.1888 44.8758 51.5721 44.8758 50.8138V49.3521C44.8758 48.5942 44.2592 47.9775 43.5017 47.9775ZM43.5958 50.8138C43.5958 50.8663 43.5533 50.9088 43.5017 50.9088H41.3067C41.2542 50.9088 41.2117 50.8663 41.2117 50.8138V49.3521C41.2117 49.3 41.2542 49.2575 41.3067 49.2575H43.5017C43.5533 49.2575 43.5958 49.3 43.5958 49.3521V50.8138ZM33.1692 50.8138C33.1692 51.5721 33.7858 52.1888 34.5442 52.1888H36.7392C37.4975 52.1888 38.1142 51.5721 38.1142 50.8138V49.3521C38.1142 48.5942 37.4975 47.9775 36.7392 47.9775H34.5442C33.7858 47.9775 33.1692 48.5942 33.1692 49.3521V50.8138ZM34.4492 49.3521C34.4492 49.3 34.4917 49.2575 34.5442 49.2575H36.7392C36.7917 49.2575 36.8342 49.3 36.8342 49.3521V50.8138C36.8342 50.8663 36.7917 50.9088 36.7392 50.9088H34.5442C34.4917 50.9088 34.4492 50.8663 34.4492 50.8138V49.3521Z" fill="#1150CB" stroke="#1150CB" stroke-width="0.5"/>
    <path d="M56.9883 8H33.1375C31.5425 8 30.245 9.30167 30.245 10.9013V30.0588C30.245 30.4121 30.5317 30.6988 30.885 30.6988C31.2383 30.6988 31.525 30.4121 31.525 30.0588V10.9013C31.525 10.0071 32.2483 9.28 33.1375 9.28H56.9883C57.8775 9.28 58.6008 10.0071 58.6008 10.9013V45.7942C58.6008 46.6833 57.8775 47.4067 56.9883 47.4067H56.6983C56.345 47.4067 56.0583 47.6933 56.0583 48.0467C56.0583 48.4 56.345 48.6867 56.6983 48.6867H56.9883C58.5833 48.6867 59.8808 47.3892 59.8808 45.7942V10.9013C59.8808 9.30167 58.5833 8 56.9883 8Z" fill="#1150CB" stroke="#1150CB" stroke-width="0.5"/>
    <path d="M44.9591 16.7804C44.9591 13.5721 42.3483 10.9617 39.14 10.9617C35.9316 10.9617 33.3216 13.5721 33.3216 16.7804C33.3216 19.9888 35.9316 22.5992 39.14 22.5992C42.3483 22.5992 44.9591 19.9888 44.9591 16.7804ZM39.14 21.3192C36.6375 21.3192 34.6016 19.2829 34.6016 16.7804C34.6016 14.2779 36.6375 12.2417 39.14 12.2417C41.6425 12.2417 43.6791 14.2779 43.6791 16.7804C43.6791 19.2829 41.6425 21.3192 39.14 21.3192ZM47.405 15.7879H54.9916C55.345 15.7879 55.6316 15.5013 55.6316 15.1479C55.6316 14.7946 55.345 14.5079 54.9916 14.5079H47.405C47.0516 14.5079 46.765 14.7946 46.765 15.1479C46.765 15.5013 47.0516 15.7879 47.405 15.7879ZM47.405 18.9358H54.9916C55.345 18.9358 55.6316 18.6492 55.6316 18.2958C55.6316 17.9425 55.345 17.6558 54.9916 17.6558H47.405C47.0516 17.6558 46.765 17.9425 46.765 18.2958C46.765 18.6492 47.0516 18.9358 47.405 18.9358ZM53.0475 25.7954C52.7975 25.5454 52.3925 25.5454 52.1425 25.7954L50.8804 27.0575L49.6183 25.7954C49.3683 25.5454 48.9633 25.5454 48.7133 25.7954C48.4633 26.0454 48.4633 26.4504 48.7133 26.7004L49.9754 27.9625L48.7133 29.2246C48.4633 29.4746 48.4633 29.8796 48.7133 30.1296C48.9634 30.3797 49.3683 30.3796 49.6183 30.1296L50.8804 28.8675L52.1425 30.1296C52.3926 30.3797 52.7975 30.3796 53.0475 30.1296C53.2975 29.8796 53.2975 29.4746 53.0475 29.2246L51.7854 27.9625L53.0475 26.7004C53.2975 26.4504 53.2975 26.0454 53.0475 25.7954ZM53.5383 20.4438C53.2883 20.1938 52.8833 20.1938 52.6333 20.4438L50.1283 22.9492L49.4983 22.3192C49.2483 22.0692 48.8433 22.0692 48.5933 22.3192C48.3433 22.5692 48.3433 22.9742 48.5933 23.2242L49.6758 24.3067C49.9258 24.5567 50.331 24.5565 50.5808 24.3067L53.5383 21.3488C53.7883 21.0988 53.7883 20.6938 53.5383 20.4438ZM42.1816 24.7871H36.0608C35.7075 24.7871 35.4208 25.0738 35.4208 25.4271C35.4208 25.7804 35.7075 26.0671 36.0608 26.0671H42.1816C42.535 26.0671 42.8216 25.7804 42.8216 25.4271C42.8216 25.0738 42.535 24.7871 42.1816 24.7871ZM42.1816 28.0292H36.0608C35.7075 28.0292 35.4208 28.3158 35.4208 28.6692C35.4208 29.0225 35.7075 29.3092 36.0608 29.3092H42.1816C42.535 29.3092 42.8216 29.0225 42.8216 28.6692C42.8216 28.3158 42.535 28.0292 42.1816 28.0292ZM8.81623 54.165C8.86623 54.1863 8.92415 54.2329 8.92415 54.2992C8.92415 55.0796 9.55915 55.7146 10.3396 55.7146H24.4475C25.2279 55.7146 25.8629 55.0796 25.8629 54.2963C25.8629 54.2329 25.9208 54.1863 25.9708 54.165C30.2771 52.3501 31.9837 46.7903 29.91 42.0771C28.6816 39.2838 26.51 36.4643 22.9295 32.9962C23.8378 31.7117 22.9145 29.9358 21.345 29.9358H13.4421C11.8747 29.9358 10.9477 31.7095 11.8575 32.9961C8.27701 36.4638 6.10545 39.2834 4.87665 42.0771C2.80031 46.7978 4.53072 52.3588 8.81623 54.165ZM13.4421 31.2158H21.345C21.7104 31.2158 22.0079 31.5133 22.0079 31.8788C22.0079 32.2446 21.7104 32.5421 21.345 32.5421H13.4421C13.0766 32.5421 12.7791 32.2446 12.7791 31.8788C12.7791 31.5133 13.0766 31.2158 13.4421 31.2158ZM6.04832 42.5921C7.2278 39.9111 9.35904 37.1714 12.9235 33.7429C13.4651 33.8942 13.0816 33.7892 21.345 33.8221C21.5258 33.8221 21.6974 33.7893 21.8636 33.7429C25.428 37.1714 27.5593 39.9111 28.7383 42.5925C30.5505 46.7106 29.0634 51.4723 25.4733 52.9858C24.9325 53.2138 24.5829 53.7283 24.5829 54.2992C24.5829 54.3738 24.5221 54.4346 24.4475 54.4346H10.3396C10.265 54.4346 10.2041 54.3738 10.2041 54.2963C10.2041 53.7283 9.85457 53.2138 9.31373 52.9858C5.74572 51.4816 4.22561 46.7355 6.04832 42.5921Z" fill="#1150CB" stroke="#1150CB" stroke-width="0.5"/>
    <path d="M10.0525 51.2471C10.3408 51.0425 10.4087 50.6429 10.2042 50.3546C8.61291 48.1113 8.46166 45.2229 9.79957 42.6284C10.6258 41.0263 11.87 39.3863 13.6042 37.6138C13.8512 37.3613 13.8471 36.9559 13.5942 36.7088C13.3412 36.4613 12.9362 36.465 12.6892 36.7188C10.8646 38.5834 9.54749 40.3246 8.66207 42.0417C7.10041 45.0696 7.28666 48.4542 9.15999 51.0954C9.36488 51.3837 9.76376 51.4514 10.0525 51.2471ZM22.0796 25.4734C21.7062 26.2484 21.3942 27.0279 21.1512 27.79C21.0201 28.2028 21.3286 28.6242 21.7612 28.6242C22.0325 28.6242 22.2846 28.4504 22.3712 28.1784C22.5954 27.4734 22.8854 26.75 23.2346 26.0259C23.845 24.7394 24.3496 24.1256 25.1367 23.4521C26.0726 22.6623 25.5758 21.1287 24.3321 21.0629C23.6133 21.0346 22.8525 21.1684 22.0758 21.4529C21.9058 21.5113 21.7258 21.4888 21.6008 21.3925C21.2779 21.1475 21.0108 21.0209 20.765 20.9192C20.0143 20.6446 18.9815 20.6823 18.1654 21.0734C17.6692 21.3121 17.1217 21.3117 16.6162 21.0692C15.7417 20.6662 14.7137 20.6606 13.9992 20.9296C13.7708 21.025 13.4954 21.1546 13.1704 21.4013C13.0587 21.4892 12.8796 21.5088 12.7292 21.4579C11.9383 21.1675 11.1737 21.035 10.4504 21.0634C9.2125 21.1295 8.71488 22.6675 9.64207 23.4488C11.0334 24.6393 11.8645 26.4319 12.4196 28.1784C12.5267 28.5146 12.8854 28.7009 13.2237 28.5942C13.5604 28.4867 13.7467 28.1271 13.6396 27.79C12.9977 25.7756 12.0618 23.8364 10.4746 22.4763C10.4733 22.475 10.4492 22.3942 10.4475 22.3929C10.4642 22.3446 10.4992 22.3425 10.5096 22.3421C11.3614 22.3018 12.0523 22.5914 12.4285 22.6915C12.5864 22.963 14.2542 24.4651 14.5208 27.2488C14.5525 27.5796 14.8312 27.8275 15.1571 27.8275C15.5368 27.8275 15.8309 27.5014 15.795 27.1263C15.6314 25.4193 14.9591 23.7846 13.8862 22.4532C13.9079 22.4378 13.9342 22.4291 13.955 22.4125C14.1433 22.2696 14.3062 22.1884 14.4704 22.1192C14.6917 22.0359 15.1704 22.0017 15.4725 22.05C15.7383 22.0859 15.9221 22.1588 16.0717 22.2275C16.9125 22.6309 17.8779 22.6317 18.7196 22.2275C18.9104 22.1359 19.0987 22.0796 19.3275 22.0475C19.6183 22.0013 20.0921 22.0359 20.2983 22.1104C20.4737 22.1838 20.6308 22.2634 20.8229 22.4092C21.2854 22.7667 21.9087 22.8625 22.5029 22.6596C23.1354 22.4271 23.7342 22.32 24.3371 22.3875C24.4067 22.5963 23.3047 22.8938 22.0796 25.4734ZM26.2158 32.8588C26.0899 32.5631 25.9911 32.2048 25.8112 31.8642C25.6462 31.5517 25.2587 31.4329 24.9462 31.5975C24.6337 31.7629 24.5146 32.15 24.6796 32.4625C24.8107 32.7109 24.9046 33.0492 25.0404 33.365C26.0478 35.6886 29.1558 36.4087 30.2767 35.5209C30.6279 35.2429 30.734 34.8393 30.6433 34.5542C30.4625 33.9871 30.0533 33.7938 29.755 33.6529C28.312 32.9688 28.2842 30.9813 27.1504 29.4867C26.2797 28.3621 25.062 27.8846 23.7417 28.385C23.4112 28.51 23.2446 28.8796 23.37 29.21C23.4946 29.5404 23.8646 29.7059 24.195 29.5817C24.9839 29.2828 25.6221 29.603 26.1342 30.265C27.0456 31.4677 27.2572 33.6603 28.8137 34.6034C27.7902 34.5305 26.6476 33.8536 26.2158 32.8588Z" fill="#1150CB" stroke="#1150CB" stroke-width="0.5"/>
</svg>
